<?xml version="1.0" standalone="no"?>
<!DOCTYPE svg PUBLIC "-//W3C//DTD SVG 20010904//EN"
 "http://www.w3.org/TR/2001/REC-SVG-20010904/DTD/svg10.dtd">
<svg version="1.0" xmlns="http://www.w3.org/2000/svg"
 width="325.000000pt" height="260.000000pt" viewBox="0 0 325.000000 260.000000"
 preserveAspectRatio="xMidYMid meet">

<g transform="translate(0.000000,260.000000) scale(0.100000,-0.100000)"
fill="#000000" stroke="none">
<path d="M1941 2081 c-11 -38 -13 -40 -58 -43 l-47 -3 37 -25 c28 -19 36 -30
32 -45 -3 -11 -8 -31 -12 -45 l-7 -25 36 27 35 27 33 -24 c19 -14 36 -23 38
-20 2 2 -1 18 -7 36 -15 45 -15 45 27 71 l37 23 -49 5 c-45 5 -50 8 -60 37
-16 47 -22 47 -35 4z m24 0 c3 -5 1 -12 -5 -16 -5 -3 -10 1 -10 9 0 18 6 21
15 7z m-63 -63 c-9 -9 -15 -9 -24 0 -9 9 -7 12 12 12 19 0 21 -3 12 -12z"/>
<path d="M1965 1905 c43 -110 49 -142 49 -275 0 -115 -3 -144 -22 -194 -75
-202 -241 -329 -480 -367 -40 -7 -69 -16 -65 -20 25 -23 138 -49 218 -49 223
0 404 140 460 357 34 132 16 223 -85 419 -67 130 -94 176 -75 129z"/>
<path d="M832 778 l3 -113 63 -3 c62 -3 62 -3 62 25 0 21 -3 24 -12 15 -7 -7
-27 -12 -45 -12 l-33 0 0 88 c0 83 -8 112 -32 112 -5 0 -7 -51 -6 -112z"/>
<path d="M978 878 c8 -8 12 -45 12 -110 0 -94 1 -98 23 -104 33 -8 97 -1 100
11 1 6 -19 11 -45 13 l-48 3 0 40 c0 38 1 39 35 39 19 0 35 5 35 10 0 6 -16
10 -35 10 -34 0 -35 1 -35 36 l0 37 50 -5 c43 -4 50 -3 48 11 -3 13 -19 17
-78 19 -60 2 -72 0 -62 -10z"/>
<path d="M1206 881 c-19 -30 -76 -197 -71 -208 7 -21 23 -7 30 28 6 28 9 30
48 27 40 -3 42 -4 41 -35 -2 -28 2 -33 20 -33 13 0 25 3 28 6 3 3 -10 54 -30
115 -33 99 -51 125 -66 100z m28 -98 c6 -20 4 -23 -18 -23 -30 0 -29 -2 -15
40 12 34 19 30 33 -17z"/>
<path d="M1330 871 c5 -11 10 -60 10 -110 0 -87 1 -91 23 -97 72 -18 132 36
131 118 0 44 -5 55 -32 80 -27 24 -41 28 -88 28 -51 0 -54 -1 -44 -19z m111
-28 c8 -9 14 -39 14 -68 0 -61 -16 -85 -56 -85 l-29 0 0 85 0 85 29 0 c16 0
35 -7 42 -17z"/>
<path d="M1518 878 c8 -8 12 -45 12 -110 0 -94 1 -98 23 -104 33 -8 97 -1 100
11 1 6 -17 11 -40 13 -43 3 -43 3 -43 43 0 37 2 39 30 39 17 0 30 5 30 10 0 6
-13 10 -30 10 -28 0 -30 3 -30 36 l0 36 45 -4 c36 -2 45 0 43 12 -3 11 -21 16
-78 18 -60 2 -72 0 -62 -10z"/>
<path d="M1678 878 c8 -8 12 -47 12 -109 0 -77 3 -98 15 -103 12 -4 15 4 15
44 0 28 4 50 10 50 5 0 21 -22 35 -50 18 -35 31 -50 45 -50 25 0 25 3 -5 55
l-26 43 26 26 c31 31 32 50 0 81 -20 21 -34 25 -82 25 -44 0 -54 -3 -45 -12z
m100 -27 c8 -4 12 -19 10 -32 -2 -19 -10 -25 -35 -27 -32 -3 -33 -2 -33 32 0
31 3 36 23 36 12 0 28 -4 35 -9z"/>
<path d="M1870 870 c-38 -38 -23 -74 42 -105 55 -26 60 -58 10 -63 -18 -2 -39
2 -47 8 -18 15 -31 -6 -15 -25 32 -39 124 -19 136 29 9 36 -12 65 -62 87 -33
14 -45 24 -42 36 4 22 53 30 74 12 19 -15 25 -9 17 19 -4 18 -12 22 -49 22
-31 0 -50 -6 -64 -20z"/>
<path d="M2022 778 c2 -93 6 -113 18 -113 11 0 16 13 18 48 l3 47 45 0 44 0 0
-50 c0 -38 4 -50 15 -50 12 0 15 19 15 115 l0 115 -27 0 c-21 0 -24 -3 -15
-12 7 -7 12 -29 12 -50 l0 -38 -45 0 -45 0 0 44 c0 40 -11 56 -36 56 -3 0 -3
-51 -2 -112z"/>
<path d="M2208 884 c8 -4 12 -36 12 -109 0 -83 3 -104 15 -109 23 -8 26 9 23
120 l-3 99 -30 2 c-16 1 -24 0 -17 -3z"/>
<path d="M2288 878 c8 -8 12 -47 12 -109 0 -74 3 -98 14 -102 21 -8 26 2 26
50 0 39 2 43 24 43 35 0 69 31 69 65 0 43 -34 65 -101 65 -44 0 -53 -3 -44
-12z m105 -40 c13 -20 -6 -48 -34 -48 -15 0 -19 7 -19 36 0 31 3 35 21 32 12
-2 27 -10 32 -20z"/>
</g>
</svg>
