<svg id="svg" version="1.1" xmlns="http://www.w3.org/2000/svg" xmlns:xlink="http://www.w3.org/1999/xlink" width="400" height="210.5263157894737" viewBox="0, 0, 400,210.5263157894737"><g id="svgg"><path id="path0" d="M139.509 45.403 C 139.432 45.480,139.368 65.610,139.368 90.136 L 139.368 134.729 139.842 134.843 C 140.103 134.906,155.189 134.931,173.368 134.900 L 206.421 134.842 206.476 126.583 L 206.531 118.324 181.574 118.267 C 159.660 118.217,156.592 118.172,156.417 117.895 C 156.299 117.708,156.216 113.685,156.214 108.047 L 156.211 98.516 156.749 98.311 C 157.087 98.183,166.072 98.109,180.862 98.113 C 193.828 98.117,204.528 98.064,204.639 97.995 C 204.861 97.858,204.933 83.218,204.714 82.649 C 204.599 82.348,202.283 82.316,180.651 82.316 C 162.315 82.316,156.657 82.257,156.463 82.063 C 156.171 81.771,156.095 62.614,156.384 62.159 C 156.515 61.952,161.858 61.885,181.486 61.843 L 206.421 61.789 206.421 53.579 L 206.421 45.368 173.036 45.315 C 154.674 45.286,139.587 45.325,139.509 45.403 M226.941 56.368 L 225.579 57.789 227.000 56.427 C 227.782 55.678,228.421 55.038,228.421 55.006 C 228.421 54.851,228.207 55.048,226.941 56.368 M263.000 58.461 C 263.203 58.514,263.534 58.514,263.737 58.461 C 263.939 58.408,263.774 58.365,263.368 58.365 C 262.963 58.365,262.797 58.408,263.000 58.461 M261.178 81.651 C 261.105 81.769,261.148 81.929,261.274 82.007 C 261.597 82.207,261.806 81.933,261.536 81.662 C 261.385 81.511,261.267 81.508,261.178 81.651 M292.918 90.526 C 292.918 91.626,292.953 92.076,292.997 91.526 C 293.040 90.976,293.040 90.076,292.997 89.526 C 292.953 88.976,292.918 89.426,292.918 90.526 M228.695 90.316 C 228.695 90.953,228.734 91.213,228.782 90.895 C 228.831 90.576,228.831 90.055,228.782 89.737 C 228.734 89.418,228.695 89.679,228.695 90.316 M249.579 94.526 C 249.507 94.642,249.494 94.737,249.549 94.737 C 249.605 94.737,249.801 94.795,249.985 94.866 C 250.231 94.960,250.286 94.903,250.190 94.655 C 250.043 94.271,249.772 94.214,249.579 94.526 M242.667 100.351 C 242.424 100.593,242.513 100.842,242.842 100.842 C 243.016 100.842,243.158 100.700,243.158 100.526 C 243.158 100.198,242.909 100.109,242.667 100.351 M238.667 108.982 C 238.448 109.201,238.502 109.895,238.737 109.895 C 238.853 109.895,238.947 109.658,238.947 109.368 C 238.947 108.817,238.899 108.750,238.667 108.982 M238.316 113.329 C 238.316 113.365,238.624 113.673,239.000 114.013 L 239.684 114.632 239.066 113.947 C 238.490 113.310,238.316 113.166,238.316 113.329 M290.423 127.998 C 290.349 128.117,290.434 128.152,290.623 128.079 C 290.804 128.010,291.117 128.082,291.318 128.240 C 291.649 128.499,291.657 128.491,291.395 128.158 C 291.076 127.751,290.621 127.676,290.423 127.998 M257.737 138.461 C 257.939 138.514,258.271 138.514,258.474 138.461 C 258.676 138.408,258.511 138.365,258.105 138.365 C 257.700 138.365,257.534 138.408,257.737 138.461 M263.105 138.464 C 263.366 138.515,263.792 138.515,264.053 138.464 C 264.313 138.414,264.100 138.373,263.579 138.373 C 263.058 138.373,262.845 138.414,263.105 138.464 " stroke="none" fill="#ebde8d" fill-rule="evenodd"></path><path id="path1" d="M0.000 105.263 L 0.000 210.526 200.000 210.526 L 400.000 210.526 400.000 105.263 L 400.000 0.000 200.000 0.000 L 0.000 0.000 0.000 105.263 M314.234 32.368 C 314.155 33.266,313.956 35.800,313.793 38.000 C 313.534 41.485,313.147 45.988,312.723 50.474 C 312.566 52.125,312.584 52.127,309.895 50.225 C 308.207 49.032,307.627 48.721,307.440 48.910 C 307.306 49.046,306.323 50.674,305.256 52.526 C 304.189 54.379,302.817 56.747,302.208 57.789 C 300.774 60.242,296.100 68.310,295.012 70.211 C 294.548 71.021,292.956 73.768,291.476 76.316 C 289.995 78.863,288.100 82.132,287.265 83.579 C 286.431 85.026,284.343 88.626,282.626 91.579 C 280.909 94.532,279.308 97.302,279.068 97.735 C 278.476 98.804,279.288 99.118,267.841 93.397 C 255.438 87.197,256.966 87.698,255.722 89.430 C 254.286 91.427,249.501 98.228,245.975 103.283 C 241.910 109.110,239.715 112.105,239.508 112.105 C 239.152 112.105,237.053 109.808,237.053 109.418 C 237.053 109.236,237.282 108.629,237.562 108.070 C 237.843 107.510,238.825 105.489,239.746 103.579 C 242.306 98.264,244.489 93.759,246.580 89.474 C 248.282 85.986,249.605 83.243,252.241 77.737 C 252.725 76.726,253.202 76.000,253.382 76.000 C 253.552 76.000,258.435 78.379,264.233 81.287 C 270.030 84.195,274.850 86.492,274.943 86.392 C 275.036 86.292,275.629 85.311,276.262 84.211 C 276.894 83.111,278.268 80.742,279.314 78.947 C 281.524 75.156,282.402 73.639,284.305 70.316 C 285.068 68.984,285.914 67.516,286.185 67.053 C 288.248 63.536,296.814 48.738,299.092 44.757 C 299.977 43.211,300.094 43.439,297.472 41.608 C 296.257 40.759,295.263 39.949,295.263 39.806 C 295.263 39.584,297.626 38.423,309.895 32.617 C 310.879 32.151,312.158 31.545,312.737 31.270 C 314.390 30.485,314.399 30.491,314.234 32.368 M97.684 42.829 C 110.406 45.028,117.711 49.466,122.937 58.169 C 123.943 59.844,124.016 60.047,123.696 60.274 C 123.502 60.413,120.450 61.995,116.914 63.789 L 110.486 67.053 109.927 66.316 C 99.463 52.512,69.550 54.927,70.803 69.474 C 71.316 75.432,77.104 78.522,90.714 80.104 C 113.749 82.782,124.322 89.781,126.414 103.735 C 129.669 125.454,112.307 139.009,83.754 137.041 C 67.349 135.910,57.071 129.821,51.118 117.705 C 49.817 115.059,49.723 115.270,52.950 113.605 C 54.338 112.888,57.336 111.334,59.611 110.151 C 64.284 107.722,64.295 107.718,64.638 108.758 C 66.546 114.538,74.565 120.029,83.263 121.511 C 96.887 123.831,108.504 118.940,109.714 110.375 C 110.864 102.235,104.287 97.385,89.789 95.680 C 65.133 92.781,54.975 85.520,54.011 70.105 C 53.819 67.030,54.470 62.124,55.340 60.105 C 59.716 49.940,67.957 44.768,83.474 42.450 C 85.082 42.210,95.747 42.494,97.684 42.829 M269.436 43.460 C 275.842 44.743,280.322 46.416,285.158 49.331 C 288.473 51.330,290.351 52.804,290.121 53.228 C 290.016 53.421,289.298 54.668,288.524 56.000 C 287.750 57.332,286.112 60.160,284.884 62.286 C 283.655 64.412,282.539 66.194,282.403 66.246 C 282.268 66.299,281.278 65.669,280.203 64.848 C 264.197 52.612,240.890 58.259,232.007 76.526 C 223.140 94.761,233.574 116.795,253.331 121.555 C 264.545 124.258,277.901 120.198,284.542 112.070 C 284.996 111.513,285.527 110.898,285.721 110.703 C 291.077 105.309,294.182 92.773,292.321 84.051 C 292.064 82.843,292.017 82.233,292.167 82.051 C 292.374 81.802,293.584 79.736,296.948 73.895 C 300.861 67.097,301.407 66.211,301.678 66.211 C 302.382 66.211,305.445 72.955,306.719 77.309 C 308.916 84.819,308.998 95.353,306.920 102.947 C 305.443 108.347,303.446 112.696,300.303 117.357 C 299.326 118.807,298.526 120.112,298.526 120.258 C 298.526 120.404,301.005 123.004,304.035 126.035 L 309.544 131.547 310.193 131.056 C 311.586 130.002,313.703 129.879,315.496 130.748 C 316.111 131.045,321.438 136.240,332.980 147.799 L 349.579 164.423 349.579 165.976 L 349.579 167.529 343.534 173.659 C 337.501 179.779,337.488 179.789,336.597 179.789 L 335.704 179.789 318.994 163.105 C 309.804 153.929,302.012 146.032,301.679 145.556 C 300.423 143.761,300.392 141.453,301.601 139.672 L 302.124 138.901 296.616 133.451 C 290.549 127.446,290.954 127.722,289.662 128.700 C 265.689 146.851,230.997 138.811,217.604 112.000 C 215.133 107.052,214.191 103.893,212.833 95.987 C 212.575 94.488,212.571 86.653,212.827 85.326 C 212.934 84.770,213.187 83.226,213.388 81.895 C 217.218 56.627,243.883 38.342,269.436 43.460 M206.421 53.579 L 206.421 61.789 181.486 61.843 C 161.858 61.885,156.515 61.952,156.384 62.159 C 156.095 62.614,156.171 81.771,156.463 82.063 C 156.657 82.257,162.315 82.316,180.651 82.316 C 202.283 82.316,204.599 82.348,204.714 82.649 C 204.933 83.218,204.861 97.858,204.639 97.995 C 204.528 98.064,193.828 98.117,180.862 98.113 C 166.072 98.109,157.087 98.183,156.749 98.311 L 156.211 98.516 156.214 108.047 C 156.216 113.685,156.299 117.708,156.417 117.895 C 156.592 118.172,159.660 118.217,181.574 118.267 L 206.531 118.324 206.476 126.583 L 206.421 134.842 173.368 134.900 C 155.189 134.931,140.103 134.906,139.842 134.843 L 139.368 134.729 139.368 90.136 C 139.368 65.610,139.432 45.480,139.509 45.403 C 139.587 45.325,154.674 45.286,173.036 45.315 L 206.421 45.368 206.421 53.579 " stroke="none" fill="#fbfbfb" fill-rule="evenodd"></path><path id="path2" d="M254.202 43.063 C 236.891 45.293,221.657 57.511,215.495 74.105 C 214.600 76.517,213.564 80.477,213.375 82.211 C 213.300 82.905,213.097 84.232,212.924 85.158 C 212.147 89.330,212.848 98.017,214.401 103.474 C 222.935 133.447,257.465 147.661,284.171 132.193 C 287.036 130.534,287.371 130.318,289.100 129.015 C 289.994 128.341,290.795 127.789,290.880 127.789 C 290.965 127.789,293.477 130.220,296.463 133.191 L 301.890 138.593 302.672 137.560 C 303.102 136.991,303.622 136.404,303.828 136.254 C 304.034 136.105,304.638 135.372,305.170 134.625 C 305.703 133.879,306.710 132.751,307.410 132.118 L 308.681 130.968 308.182 130.341 C 307.908 129.997,305.576 127.617,303.000 125.053 C 300.424 122.489,298.321 120.327,298.328 120.248 C 298.335 120.170,298.548 119.815,298.802 119.461 C 304.099 112.060,306.528 106.194,308.035 97.158 C 308.875 92.121,308.262 82.913,306.725 77.474 C 305.331 72.541,302.040 65.648,301.401 66.323 C 301.313 66.417,295.472 76.486,293.134 80.578 L 292.021 82.524 292.322 83.946 C 296.724 104.794,279.543 124.168,258.260 122.355 C 238.042 120.633,224.698 101.523,229.933 81.789 C 230.403 80.020,231.942 76.200,232.690 74.947 C 242.963 57.750,264.765 52.970,279.941 64.588 C 282.257 66.362,282.318 66.399,282.512 66.190 C 282.657 66.034,284.212 63.378,286.314 59.698 C 286.517 59.343,287.184 58.200,287.797 57.158 C 290.518 52.528,290.406 52.973,289.097 52.000 C 279.328 44.745,266.551 41.472,254.202 43.063 " stroke="none" fill="#df4235" fill-rule="evenodd"></path><path id="path3" d="M82.842 42.549 C 79.950 42.965,81.065 42.952,85.053 42.523 L 86.421 42.376 85.263 42.371 C 84.626 42.369,83.537 42.449,82.842 42.549 M92.372 42.468 C 92.751 42.515,93.319 42.514,93.635 42.466 C 93.952 42.418,93.642 42.380,92.947 42.381 C 92.253 42.382,91.994 42.422,92.372 42.468 M94.333 42.604 C 94.382 42.647,95.132 42.735,96.000 42.799 C 97.170 42.886,97.361 42.869,96.737 42.734 C 95.894 42.550,94.168 42.457,94.333 42.604 M84.842 42.875 C 82.802 43.014,80.032 43.424,78.539 43.808 C 77.678 44.029,76.800 44.211,76.589 44.211 C 76.378 44.211,76.040 44.297,75.839 44.403 C 75.638 44.509,74.763 44.800,73.895 45.049 C 68.787 46.515,64.120 49.267,60.579 52.899 C 59.450 54.057,58.526 55.102,58.526 55.222 C 58.526 55.342,58.369 55.614,58.177 55.827 C 57.751 56.298,57.380 56.920,56.946 57.895 C 56.766 58.300,56.491 58.868,56.335 59.158 C 51.828 67.528,55.711 82.815,63.474 87.265 C 64.053 87.597,64.784 88.080,65.100 88.337 C 65.415 88.595,66.221 89.060,66.889 89.370 C 67.558 89.680,68.342 90.056,68.632 90.206 C 69.731 90.775,72.730 91.811,75.895 92.715 C 78.218 93.378,83.596 94.429,86.316 94.751 C 88.771 95.042,89.140 95.266,86.859 95.082 C 84.379 94.881,85.021 95.096,88.003 95.466 C 91.088 95.848,91.798 95.846,89.895 95.462 C 88.251 95.130,89.276 95.168,92.421 95.555 C 95.219 95.900,95.725 95.986,96.332 96.217 C 97.142 96.525,96.876 96.643,95.889 96.414 C 95.429 96.308,94.863 96.229,94.632 96.239 C 94.175 96.259,95.872 96.707,97.188 96.915 C 97.807 97.012,97.900 96.993,97.579 96.833 C 96.690 96.391,99.132 96.833,100.560 97.373 C 109.492 100.749,112.802 107.652,108.835 114.632 C 107.348 117.248,102.009 121.053,99.824 121.053 C 99.620 121.053,99.363 121.140,99.253 121.246 C 99.030 121.462,96.343 121.942,93.179 122.330 C 89.916 122.731,83.150 122.280,80.539 121.487 C 77.246 120.487,76.162 120.103,74.769 119.445 C 72.034 118.152,69.177 116.049,69.392 115.487 C 69.448 115.343,69.346 115.104,69.167 114.955 C 68.975 114.796,68.842 114.775,68.842 114.904 C 68.842 115.024,68.961 115.165,69.105 115.217 C 69.250 115.268,69.295 115.390,69.205 115.486 C 68.807 115.911,65.523 111.802,64.524 109.628 C 63.950 108.381,64.454 108.230,57.952 111.604 C 56.305 112.458,54.434 113.417,53.794 113.735 C 53.155 114.052,52.632 114.395,52.632 114.498 C 52.632 114.600,52.371 114.738,52.053 114.803 C 50.797 115.060,50.575 115.429,51.108 116.378 C 51.367 116.838,51.579 117.404,51.579 117.634 C 51.579 117.865,51.711 118.163,51.872 118.297 C 52.033 118.431,52.290 118.845,52.442 119.218 C 52.594 119.590,53.291 120.686,53.991 121.653 C 54.691 122.620,55.422 123.653,55.616 123.947 C 56.409 125.151,60.406 128.908,61.518 129.493 C 61.783 129.633,62.060 129.840,62.134 129.953 C 62.376 130.324,65.650 132.078,68.429 133.327 C 69.121 133.638,71.723 134.494,74.211 135.228 C 75.266 135.540,78.037 135.989,81.579 136.422 C 87.187 137.108,99.399 136.490,102.316 135.374 C 102.605 135.263,103.486 135.027,104.273 134.850 C 105.060 134.673,106.102 134.349,106.589 134.130 C 107.076 133.911,107.778 133.667,108.149 133.588 C 108.520 133.509,109.214 133.256,109.690 133.026 C 110.166 132.796,111.236 132.281,112.067 131.882 C 114.004 130.953,114.799 130.455,116.139 129.332 C 116.736 128.831,117.281 128.421,117.350 128.421 C 117.419 128.421,117.967 127.947,118.567 127.368 C 119.168 126.789,119.748 126.316,119.856 126.316 C 120.305 126.316,117.232 129.053,115.526 130.173 C 114.513 130.839,113.684 131.433,113.684 131.493 C 113.684 131.627,113.817 131.550,115.682 130.331 C 116.491 129.802,118.054 128.478,119.155 127.389 C 120.257 126.300,120.897 125.629,120.579 125.899 C 119.937 126.443,119.818 126.249,120.338 125.506 C 120.523 125.241,120.799 125.072,120.949 125.130 C 121.100 125.187,121.398 125.028,121.612 124.775 L 122.000 124.316 121.491 124.737 C 121.022 125.124,120.993 125.127,121.122 124.772 C 121.200 124.560,121.263 124.289,121.263 124.169 C 121.263 124.049,121.453 124.000,121.684 124.061 C 122.077 124.164,122.427 123.833,123.031 122.789 C 123.399 122.153,122.934 122.603,122.503 123.300 C 122.240 123.726,121.990 123.970,121.947 123.842 C 121.905 123.714,122.131 123.200,122.449 122.700 C 123.251 121.440,123.923 120.119,124.520 118.632 C 124.995 117.445,125.208 116.679,125.920 113.579 C 126.351 111.707,126.302 104.953,125.846 103.158 C 125.654 102.405,125.437 101.458,125.363 101.053 C 124.491 96.272,120.200 90.388,115.712 87.817 C 115.234 87.543,114.603 87.149,114.311 86.942 C 112.696 85.797,106.454 83.516,102.526 82.635 C 97.310 81.465,96.860 81.290,100.316 81.775 C 101.151 81.892,101.149 81.891,100.177 81.605 C 98.843 81.213,96.632 80.962,97.053 81.251 C 97.479 81.543,96.737 81.546,95.171 81.259 C 94.527 81.140,91.895 80.758,89.323 80.408 C 79.552 79.080,75.432 77.616,72.273 74.351 C 69.947 71.947,69.604 67.310,71.499 63.895 C 72.942 61.293,76.474 58.770,79.898 57.894 C 80.776 57.669,81.587 57.428,81.700 57.359 C 82.093 57.116,86.858 56.645,88.947 56.642 C 93.717 56.637,98.703 57.784,102.632 59.792 C 103.821 60.400,106.935 62.337,107.068 62.551 C 107.292 62.914,106.978 63.023,106.584 62.718 C 106.276 62.479,106.282 62.512,106.616 62.903 C 106.923 63.263,107.064 63.313,107.197 63.110 C 107.379 62.833,110.316 65.650,110.316 66.101 C 110.316 66.537,111.014 66.280,113.946 64.761 C 115.597 63.906,118.274 62.526,119.895 61.694 C 123.382 59.904,123.248 60.014,122.912 59.243 C 122.609 58.545,120.883 55.824,120.479 55.406 C 120.331 55.253,120.211 55.058,120.211 54.973 C 120.211 54.610,116.038 50.683,114.658 49.748 C 114.180 49.424,113.742 49.106,113.684 49.042 C 113.626 48.978,113.232 48.715,112.808 48.457 C 105.964 44.300,95.265 42.164,84.842 42.875 M76.316 43.789 C 75.779 44.020,76.333 44.020,77.053 43.789 C 77.476 43.654,77.496 43.620,77.158 43.615 C 76.926 43.611,76.547 43.690,76.316 43.789 M101.684 43.789 C 101.974 43.882,102.400 43.961,102.632 43.964 L 103.053 43.970 102.632 43.789 C 102.400 43.690,101.974 43.611,101.684 43.615 L 101.158 43.621 101.684 43.789 M73.053 44.737 C 72.300 45.008,71.784 45.238,71.906 45.247 C 72.029 45.256,72.786 45.033,73.591 44.753 C 74.395 44.472,74.911 44.242,74.737 44.243 C 74.563 44.243,73.805 44.465,73.053 44.737 M104.421 44.469 C 105.055 44.749,106.759 45.247,107.053 45.238 C 107.168 45.235,106.605 45.002,105.801 44.721 C 104.315 44.202,103.463 44.047,104.421 44.469 M70.211 45.785 C 69.632 46.058,69.253 46.283,69.368 46.285 C 69.484 46.288,70.053 46.067,70.632 45.794 C 71.211 45.521,71.589 45.296,71.474 45.294 C 71.358 45.291,70.789 45.512,70.211 45.785 M107.368 45.363 C 107.368 45.529,108.895 46.123,109.015 46.003 C 109.074 45.943,109.071 45.895,109.008 45.895 C 108.945 45.895,108.550 45.751,108.131 45.576 C 107.712 45.401,107.368 45.305,107.368 45.363 M110.316 46.737 C 110.721 46.959,111.147 47.140,111.263 47.140 C 111.379 47.140,111.142 46.959,110.737 46.737 C 110.332 46.515,109.905 46.333,109.789 46.333 C 109.674 46.333,109.911 46.515,110.316 46.737 M64.890 48.611 C 63.849 49.295,62.933 49.958,62.855 50.084 C 62.777 50.211,63.642 49.687,64.778 48.921 C 67.024 47.404,67.073 47.368,66.900 47.368 C 66.836 47.368,65.931 47.928,64.890 48.611 M113.684 48.498 C 113.684 48.556,113.968 48.805,114.316 49.053 C 114.663 49.300,114.947 49.455,114.947 49.397 C 114.947 49.339,114.663 49.089,114.316 48.842 C 113.968 48.595,113.684 48.440,113.684 48.498 M116.105 50.336 C 117.276 51.341,119.261 53.345,120.487 54.759 C 121.162 55.537,121.213 55.567,120.807 54.947 C 120.182 53.992,117.216 51.018,116.000 50.126 C 115.070 49.445,115.072 49.449,116.105 50.336 M61.733 50.965 C 61.355 51.303,61.119 51.576,61.207 51.571 C 61.458 51.560,62.627 50.557,62.518 50.448 C 62.464 50.394,62.111 50.627,61.733 50.965 M59.335 53.421 C 58.755 54.052,57.461 55.815,57.829 55.474 C 58.150 55.176,60.019 52.842,59.937 52.842 C 59.899 52.842,59.628 53.103,59.335 53.421 M121.454 56.173 C 121.582 56.412,121.790 56.672,121.917 56.751 C 122.082 56.853,122.081 56.770,121.915 56.458 C 121.787 56.219,121.578 55.959,121.452 55.881 C 121.286 55.779,121.287 55.862,121.454 56.173 M56.146 58.221 C 55.834 58.857,55.583 59.494,55.589 59.636 C 55.594 59.778,55.879 59.288,56.222 58.546 C 56.990 56.887,56.928 56.626,56.146 58.221 M85.211 57.205 C 85.587 57.252,86.203 57.252,86.579 57.205 C 86.955 57.158,86.647 57.120,85.895 57.120 C 85.142 57.120,84.834 57.158,85.211 57.205 M92.258 57.256 C 93.036 57.356,93.984 57.494,94.363 57.562 C 95.001 57.677,95.013 57.669,94.526 57.458 C 94.237 57.333,93.289 57.195,92.421 57.152 L 90.842 57.074 92.258 57.256 M82.947 57.485 C 82.721 57.639,82.870 57.660,83.474 57.559 C 84.518 57.384,84.686 57.262,83.877 57.266 C 83.539 57.268,83.121 57.366,82.947 57.485 M79.421 58.322 C 78.692 58.615,78.860 58.744,79.632 58.484 C 80.008 58.357,80.355 58.220,80.404 58.179 C 80.575 58.035,79.887 58.135,79.421 58.322 M98.526 58.632 C 99.488 59.002,99.866 58.996,99.053 58.624 C 98.705 58.465,98.279 58.338,98.105 58.341 C 97.932 58.345,98.121 58.476,98.526 58.632 M77.040 59.339 C 75.609 60.055,73.996 61.259,73.271 62.154 C 72.632 62.941,72.711 62.896,73.908 61.789 C 74.660 61.095,75.864 60.213,76.585 59.830 C 77.305 59.447,77.895 59.091,77.895 59.040 C 77.895 58.913,77.886 58.916,77.040 59.339 M100.211 59.228 C 100.211 59.283,100.516 59.434,100.890 59.564 C 101.264 59.694,101.477 59.714,101.364 59.608 C 101.124 59.384,100.211 59.083,100.211 59.228 M123.382 59.263 C 123.382 59.379,123.521 59.658,123.691 59.882 C 123.861 60.107,124.000 60.196,124.000 60.080 C 124.000 59.965,123.861 59.686,123.691 59.461 C 123.521 59.237,123.382 59.147,123.382 59.263 M102.842 60.482 C 103.537 60.858,104.570 61.486,105.138 61.878 C 105.706 62.270,106.108 62.491,106.033 62.369 C 105.853 62.078,103.683 60.626,102.740 60.165 C 101.451 59.536,101.526 59.771,102.842 60.482 M55.308 60.158 C 55.102 60.540,54.689 62.338,54.785 62.434 C 54.844 62.493,55.036 61.969,55.212 61.270 C 55.503 60.115,55.536 59.736,55.308 60.158 M121.010 61.451 C 117.888 63.108,117.882 63.265,121.000 61.707 C 123.278 60.568,123.951 60.159,123.421 60.233 C 123.334 60.245,122.249 60.793,121.010 61.451 M54.353 63.941 C 54.040 65.597,53.829 69.920,54.088 69.368 C 54.197 69.137,54.293 68.136,54.301 67.144 C 54.309 66.152,54.417 64.793,54.541 64.123 C 54.665 63.454,54.725 62.865,54.675 62.815 C 54.625 62.765,54.480 63.272,54.353 63.941 M108.322 64.428 C 108.897 65.069,109.586 65.874,109.851 66.218 C 110.117 66.561,110.055 66.416,109.713 65.895 C 109.371 65.374,108.683 64.568,108.183 64.105 C 107.305 63.291,107.310 63.302,108.322 64.428 M113.842 65.171 C 113.061 65.572,112.421 65.948,112.421 66.006 C 112.421 66.100,115.347 64.698,115.561 64.502 C 115.849 64.237,115.072 64.540,113.842 65.171 M71.193 65.375 C 71.059 65.669,70.901 66.308,70.840 66.796 L 70.730 67.684 71.011 66.737 C 71.165 66.216,71.362 65.576,71.449 65.316 C 71.663 64.675,71.494 64.715,71.193 65.375 M110.921 66.666 C 110.656 66.986,110.676 66.993,111.158 66.743 C 111.864 66.376,111.917 66.316,111.535 66.316 C 111.356 66.316,111.079 66.473,110.921 66.666 M70.623 69.263 C 70.687 70.633,71.266 72.804,71.503 72.567 C 71.548 72.522,71.436 72.130,71.254 71.695 C 71.072 71.260,70.839 70.180,70.736 69.294 L 70.548 67.684 70.623 69.263 M54.130 71.281 C 54.144 71.966,54.232 72.811,54.325 73.158 C 54.427 73.535,54.448 73.068,54.379 72.000 C 54.242 69.910,54.094 69.482,54.130 71.281 M71.948 73.368 C 72.189 73.716,72.794 74.379,73.292 74.842 C 74.061 75.556,74.026 75.492,73.062 74.421 C 71.540 72.728,71.438 72.632,71.948 73.368 M54.748 75.172 C 54.732 75.648,55.413 77.830,55.500 77.579 C 55.540 77.463,55.389 76.800,55.166 76.105 C 54.942 75.411,54.754 74.991,54.748 75.172 M74.316 75.677 C 74.316 75.842,75.605 76.675,75.705 76.575 C 75.761 76.519,75.472 76.275,75.062 76.033 C 74.651 75.791,74.316 75.631,74.316 75.677 M76.526 77.041 C 76.874 77.262,77.442 77.500,77.789 77.570 C 78.215 77.656,78.051 77.523,77.289 77.164 C 75.946 76.532,75.653 76.485,76.526 77.041 M79.190 77.988 C 79.372 78.182,81.704 78.787,81.820 78.671 C 81.870 78.621,81.457 78.469,80.903 78.333 C 80.348 78.197,79.705 78.031,79.474 77.964 C 79.242 77.897,79.114 77.908,79.190 77.988 M55.789 78.602 C 55.789 78.839,56.988 81.120,57.354 81.579 C 57.538 81.811,57.297 81.242,56.818 80.316 C 55.912 78.563,55.789 78.359,55.789 78.602 M85.789 79.579 C 86.137 79.667,86.658 79.740,86.947 79.740 C 87.417 79.740,87.405 79.722,86.842 79.579 C 86.495 79.491,85.974 79.418,85.684 79.418 C 85.215 79.418,85.226 79.436,85.789 79.579 M92.632 80.540 C 93.500 80.691,94.495 80.810,94.842 80.802 C 95.189 80.795,94.763 80.665,93.895 80.513 C 93.026 80.361,92.032 80.243,91.684 80.250 C 91.337 80.258,91.763 80.388,92.632 80.540 M103.972 82.640 C 104.361 82.809,104.835 82.940,105.024 82.931 C 105.214 82.923,105.037 82.788,104.632 82.632 C 103.634 82.248,103.084 82.254,103.972 82.640 M58.691 83.474 C 59.777 84.891,62.691 87.562,63.947 88.293 C 64.645 88.698,64.051 88.140,62.554 86.982 C 61.643 86.277,60.256 85.010,59.472 84.166 C 58.687 83.322,58.336 83.011,58.691 83.474 M106.842 83.454 C 107.189 83.607,107.758 83.788,108.105 83.857 L 108.737 83.983 108.105 83.704 C 107.758 83.551,107.189 83.370,106.842 83.301 L 106.211 83.175 106.842 83.454 M110.294 84.651 C 110.803 84.877,111.257 85.024,111.303 84.978 C 111.394 84.887,109.771 84.201,109.522 84.225 C 109.438 84.234,109.785 84.425,110.294 84.651 M112.526 85.646 C 113.248 86.081,113.895 86.347,113.895 86.208 C 113.895 86.090,112.288 85.263,112.061 85.264 C 111.970 85.264,112.179 85.436,112.526 85.646 M114.105 86.400 C 114.105 86.545,115.627 87.391,115.720 87.298 C 115.768 87.250,115.466 87.009,115.050 86.763 C 114.289 86.314,114.105 86.244,114.105 86.400 M116.737 88.074 C 117.200 88.488,117.652 88.830,117.742 88.834 C 117.831 88.839,118.352 89.241,118.899 89.729 C 119.826 90.555,119.845 90.563,119.174 89.840 C 118.777 89.412,117.877 88.671,117.174 88.192 C 115.903 87.328,115.900 87.327,116.737 88.074 M64.737 88.741 C 64.968 88.929,65.347 89.177,65.579 89.290 L 66.000 89.497 65.579 89.154 C 65.347 88.966,64.968 88.718,64.737 88.605 L 64.316 88.398 64.737 88.741 M66.316 89.577 C 66.316 89.720,68.026 90.571,68.121 90.475 C 68.165 90.431,67.777 90.189,67.259 89.937 C 66.740 89.685,66.316 89.523,66.316 89.577 M69.789 91.253 C 70.368 91.534,70.984 91.767,71.158 91.772 C 71.525 91.782,69.983 91.055,69.240 90.868 C 68.963 90.799,69.211 90.972,69.789 91.253 M72.129 92.111 C 72.489 92.269,73.057 92.455,73.392 92.523 C 73.726 92.592,73.526 92.455,72.947 92.219 C 71.787 91.746,71.084 91.653,72.129 92.111 M121.316 92.138 C 121.518 92.370,121.684 92.660,121.684 92.784 C 121.684 92.907,121.832 93.064,122.013 93.134 C 122.388 93.278,121.652 92.128,121.201 91.865 C 121.061 91.784,121.113 91.907,121.316 92.138 M74.105 92.688 C 74.254 92.851,76.702 93.474,76.802 93.374 C 76.880 93.296,76.084 93.056,74.632 92.719 C 74.284 92.638,74.047 92.624,74.105 92.688 M123.495 95.369 C 123.810 95.949,124.108 96.383,124.158 96.333 C 124.258 96.234,123.176 94.316,123.019 94.316 C 122.965 94.316,123.179 94.790,123.495 95.369 M124.228 96.737 C 124.228 96.853,124.410 97.279,124.632 97.684 C 124.853 98.089,125.035 98.326,125.035 98.211 C 125.035 98.095,124.853 97.668,124.632 97.263 C 124.410 96.858,124.228 96.621,124.228 96.737 M98.737 97.339 C 99.142 97.496,99.711 97.688,100.000 97.767 L 100.526 97.910 100.000 97.612 C 99.711 97.447,99.142 97.255,98.737 97.183 L 98.000 97.054 98.737 97.339 M101.158 98.154 C 101.505 98.278,102.479 98.739,103.321 99.178 C 104.163 99.617,104.792 99.879,104.718 99.758 C 104.531 99.457,101.255 97.891,100.853 97.911 C 100.673 97.920,100.811 98.030,101.158 98.154 M125.504 100.105 C 125.506 100.544,126.064 102.158,126.086 101.789 C 126.093 101.674,125.965 101.153,125.800 100.632 C 125.636 100.111,125.503 99.874,125.504 100.105 M105.474 100.420 C 106.967 101.701,108.113 102.946,108.671 103.892 C 109.013 104.473,109.230 104.725,109.152 104.454 C 108.820 103.288,106.571 100.786,105.263 100.127 C 105.089 100.039,105.184 100.171,105.474 100.420 M126.612 108.526 C 126.612 110.379,126.644 111.109,126.683 110.148 C 126.722 109.187,126.722 107.671,126.683 106.779 C 126.643 105.888,126.611 106.674,126.612 108.526 M109.629 106.421 C 109.717 106.768,109.784 108.000,109.777 109.158 C 109.766 110.913,109.794 111.106,109.947 110.316 C 110.165 109.188,110.012 106.686,109.694 106.162 C 109.517 105.870,109.503 105.926,109.629 106.421 M61.820 108.971 C 60.795 109.494,59.994 109.959,60.041 110.006 C 60.136 110.101,63.789 108.238,63.789 108.094 C 63.789 107.962,63.875 107.924,61.820 108.971 M64.438 108.589 C 64.419 108.894,65.003 110.105,65.169 110.105 C 65.227 110.105,65.142 109.845,64.982 109.526 C 64.821 109.208,64.636 108.805,64.572 108.632 C 64.493 108.419,64.449 108.406,64.438 108.589 M65.428 110.718 C 65.643 111.292,67.838 114.068,68.186 114.208 C 68.347 114.272,68.136 113.946,67.719 113.485 C 67.302 113.023,66.613 112.121,66.187 111.480 C 65.370 110.250,65.180 110.059,65.428 110.718 M56.158 111.910 C 55.839 112.083,55.579 112.268,55.579 112.323 C 55.579 112.526,55.912 112.398,56.421 112.000 C 57.047 111.511,56.953 111.479,56.158 111.910 M54.240 112.877 C 53.794 113.103,53.477 113.336,53.536 113.395 C 53.651 113.510,55.368 112.692,55.368 112.522 C 55.368 112.358,55.102 112.442,54.240 112.877 M108.674 113.794 C 108.422 114.313,108.260 114.737,108.314 114.737 C 108.457 114.737,109.308 113.027,109.212 112.932 C 109.168 112.887,108.926 113.276,108.674 113.794 M52.211 114.000 C 51.689 114.279,51.338 114.512,51.429 114.517 C 51.653 114.530,53.263 113.702,53.263 113.575 C 53.263 113.435,53.272 113.432,52.211 114.000 M106.843 116.375 C 106.019 117.298,105.842 117.570,106.332 117.158 C 106.967 116.625,108.380 114.933,108.172 114.954 C 108.135 114.958,107.537 115.597,106.843 116.375 M125.703 116.019 C 125.561 116.494,125.483 116.922,125.531 116.969 C 125.578 117.017,125.733 116.667,125.876 116.191 C 126.018 115.716,126.096 115.289,126.048 115.241 C 126.001 115.194,125.846 115.544,125.703 116.019 M69.687 115.740 C 69.689 115.871,71.452 117.197,72.355 117.747 C 73.130 118.220,72.458 117.609,71.158 116.661 C 70.347 116.069,69.685 115.655,69.687 115.740 M50.737 116.919 C 50.737 117.147,51.783 119.158,51.902 119.158 C 51.960 119.158,51.757 118.661,51.452 118.053 C 50.865 116.884,50.737 116.681,50.737 116.919 M72.842 117.979 C 72.842 118.217,76.616 120.016,77.053 119.987 C 77.111 119.983,76.258 119.539,75.158 119.001 C 74.058 118.462,73.087 117.985,73.000 117.941 C 72.913 117.896,72.842 117.914,72.842 117.979 M104.427 118.431 C 104.025 118.715,103.788 118.947,103.901 118.946 C 104.013 118.946,104.389 118.712,104.737 118.428 C 105.548 117.763,105.371 117.765,104.427 118.431 M102.526 119.474 C 102.005 119.753,101.653 119.985,101.744 119.990 C 102.054 120.008,103.317 119.412,103.460 119.179 C 103.648 118.876,103.634 118.881,102.526 119.474 M52.316 120.000 C 52.495 120.347,52.690 120.632,52.748 120.632 C 52.806 120.632,52.706 120.347,52.526 120.000 C 52.347 119.653,52.152 119.368,52.094 119.368 C 52.037 119.368,52.136 119.653,52.316 120.000 M123.994 120.584 C 123.331 121.885,123.150 122.316,123.267 122.316 C 123.407 122.316,124.673 119.761,124.580 119.668 C 124.536 119.624,124.272 120.036,123.994 120.584 M77.789 120.323 C 78.137 120.482,78.563 120.610,78.737 120.606 C 78.911 120.602,78.721 120.472,78.316 120.316 C 77.355 119.946,76.976 119.951,77.789 120.323 M99.895 120.534 C 99.368 120.787,99.351 120.817,99.789 120.709 C 100.386 120.563,101.057 120.222,100.737 120.226 C 100.621 120.228,100.242 120.366,99.895 120.534 M82.632 121.584 C 83.211 121.733,84.063 121.853,84.526 121.852 C 85.143 121.850,84.945 121.775,83.789 121.572 C 81.806 121.224,81.254 121.230,82.632 121.584 M94.526 121.684 C 93.967 121.802,93.916 121.843,94.316 121.855 C 94.605 121.863,95.221 121.792,95.684 121.696 C 96.386 121.551,96.421 121.523,95.895 121.526 C 95.547 121.528,94.932 121.599,94.526 121.684 M86.055 122.044 C 86.317 122.094,86.696 122.092,86.897 122.039 C 87.098 121.987,86.884 121.945,86.421 121.948 C 85.958 121.950,85.793 121.993,86.055 122.044 M92.053 122.040 C 92.255 122.093,92.587 122.093,92.789 122.040 C 92.992 121.987,92.826 121.944,92.421 121.944 C 92.016 121.944,91.850 121.987,92.053 122.040 M53.811 122.316 C 54.071 122.835,55.780 125.022,56.058 125.192 C 56.200 125.279,56.079 125.058,55.789 124.701 C 55.500 124.345,55.074 123.788,54.842 123.464 C 54.256 122.644,53.620 121.935,53.811 122.316 M57.263 126.632 C 57.892 127.268,58.454 127.789,58.512 127.789 C 58.570 127.789,58.103 127.268,57.474 126.632 C 56.845 125.995,56.283 125.474,56.225 125.474 C 56.167 125.474,56.634 125.995,57.263 126.632 M59.498 128.567 C 59.974 129.008,60.827 129.682,61.393 130.065 C 62.572 130.864,61.898 130.268,59.815 128.672 C 58.668 127.794,58.658 127.790,59.498 128.567 M64.539 132.099 C 64.763 132.269,65.042 132.408,65.158 132.408 C 65.274 132.408,65.185 132.269,64.960 132.099 C 64.735 131.929,64.456 131.789,64.341 131.789 C 64.225 131.789,64.314 131.929,64.539 132.099 M111.684 132.422 C 110.989 132.756,109.924 133.241,109.317 133.499 C 108.710 133.757,108.245 133.999,108.282 134.036 C 108.444 134.199,113.053 132.126,113.053 131.891 C 113.053 131.757,113.127 131.728,111.684 132.422 M66.947 133.263 C 67.353 133.485,67.779 133.667,67.895 133.667 C 68.011 133.667,67.774 133.485,67.368 133.263 C 66.963 133.041,66.537 132.860,66.421 132.860 C 66.305 132.860,66.542 133.041,66.947 133.263 M69.027 134.108 C 69.533 134.341,70.197 134.581,70.500 134.641 C 70.804 134.701,70.626 134.570,70.105 134.350 C 68.776 133.789,67.910 133.594,69.027 134.108 M106.842 134.413 C 106.495 134.573,106.353 134.706,106.526 134.710 C 106.700 134.714,107.126 134.588,107.474 134.429 C 107.821 134.270,107.963 134.136,107.789 134.132 C 107.616 134.128,107.189 134.254,106.842 134.413 M72.105 135.130 C 72.856 135.444,73.804 135.623,73.579 135.409 C 73.463 135.299,72.989 135.152,72.526 135.082 C 71.991 135.001,71.838 135.018,72.105 135.130 M104.105 135.264 L 103.474 135.562 104.105 135.434 C 104.453 135.363,104.926 135.231,105.158 135.140 L 105.579 134.974 105.158 134.970 C 104.926 134.968,104.453 135.100,104.105 135.264 M77.070 136.287 C 77.118 136.329,77.579 136.417,78.094 136.483 C 78.700 136.560,78.923 136.535,78.726 136.410 C 78.445 136.232,76.873 136.115,77.070 136.287 M82.579 136.987 C 82.782 137.040,83.113 137.040,83.316 136.987 C 83.518 136.934,83.353 136.891,82.947 136.891 C 82.542 136.891,82.376 136.934,82.579 136.987 M87.316 137.209 C 88.271 137.248,89.834 137.248,90.789 137.209 C 91.745 137.170,90.963 137.138,89.053 137.138 C 87.142 137.138,86.361 137.170,87.316 137.209 " stroke="none" fill="#4485f3" fill-rule="evenodd"></path><path id="path4" d="M312.737 31.270 C 312.158 31.545,310.879 32.151,309.895 32.617 C 297.782 38.349,295.266 39.572,295.205 39.752 C 295.167 39.868,295.780 40.415,296.568 40.967 C 300.232 43.537,300.052 43.370,299.705 43.867 C 299.533 44.114,298.567 45.737,297.558 47.474 C 296.549 49.211,295.277 51.389,294.731 52.316 C 294.186 53.242,292.647 55.895,291.313 58.211 C 289.070 62.102,287.413 64.959,286.185 67.053 C 285.914 67.516,285.068 68.984,284.305 70.316 C 282.402 73.639,281.524 75.156,279.314 78.947 C 278.268 80.742,276.894 83.111,276.262 84.211 C 275.629 85.311,275.033 86.295,274.937 86.398 C 274.838 86.504,270.198 84.292,264.227 81.292 C 258.432 78.382,253.552 76.000,253.382 76.000 C 253.202 76.000,252.725 76.726,252.241 77.737 C 249.605 83.243,248.282 85.986,246.580 89.474 C 244.489 93.759,242.306 98.264,239.746 103.579 C 238.825 105.489,237.843 107.510,237.562 108.070 C 237.282 108.629,237.053 109.236,237.053 109.418 C 237.053 109.808,239.152 112.105,239.508 112.105 C 239.715 112.105,242.046 108.924,245.975 103.281 C 246.452 102.596,247.363 101.293,248.000 100.387 C 248.637 99.481,249.768 97.862,250.515 96.790 C 251.933 94.754,254.002 91.830,255.724 89.430 C 256.966 87.698,255.438 87.197,267.841 93.397 C 273.486 96.218,278.222 98.523,278.368 98.520 C 278.513 98.516,279.051 97.782,279.565 96.888 C 280.078 95.994,281.678 93.226,283.121 90.737 C 284.564 88.247,286.096 85.595,286.525 84.842 C 286.954 84.089,287.636 82.905,288.041 82.211 C 288.446 81.516,289.644 79.462,290.703 77.646 C 291.762 75.830,292.744 74.077,292.886 73.751 C 293.028 73.425,293.337 72.874,293.572 72.526 C 293.808 72.179,294.112 71.705,294.248 71.474 C 294.384 71.242,295.705 68.968,297.183 66.421 C 298.662 63.874,300.646 60.463,301.591 58.842 C 302.536 57.221,303.934 54.805,304.696 53.474 C 305.459 52.142,306.417 50.505,306.826 49.836 L 307.568 48.620 308.784 49.415 C 309.453 49.852,310.047 50.260,310.105 50.322 C 310.448 50.689,312.125 51.789,312.341 51.789 C 312.503 51.789,312.644 51.303,312.723 50.474 C 313.147 45.988,313.534 41.485,313.793 38.000 C 313.956 35.800,314.155 33.266,314.234 32.368 C 314.399 30.491,314.390 30.485,312.737 31.270 M85.684 42.443 C 85.279 42.492,83.763 42.679,82.316 42.857 C 74.430 43.831,66.208 47.057,62.330 50.700 C 62.123 50.894,61.538 51.434,61.030 51.900 C 56.892 55.692,54.689 60.604,54.331 66.842 C 53.545 80.517,60.255 88.804,75.474 92.957 C 79.189 93.971,85.710 95.146,87.667 95.154 C 88.985 95.160,88.471 95.007,86.316 94.751 C 83.596 94.429,78.218 93.378,75.895 92.715 C 72.730 91.811,69.731 90.775,68.632 90.206 C 68.342 90.056,67.558 89.680,66.889 89.370 C 66.221 89.060,65.415 88.595,65.100 88.337 C 64.784 88.080,64.053 87.597,63.474 87.265 C 55.711 82.815,51.828 67.528,56.335 59.158 C 56.491 58.868,56.766 58.300,56.946 57.895 C 57.380 56.920,57.751 56.298,58.177 55.827 C 58.369 55.614,58.526 55.342,58.526 55.222 C 58.526 55.102,59.450 54.057,60.579 52.899 C 64.120 49.267,68.787 46.515,73.895 45.049 C 74.763 44.800,75.638 44.509,75.839 44.403 C 76.040 44.297,76.376 44.211,76.584 44.211 C 76.793 44.211,77.529 44.061,78.219 43.877 C 85.842 41.853,99.588 42.730,107.158 45.723 C 109.286 46.564,113.285 48.598,113.684 49.042 C 113.742 49.106,114.180 49.424,114.658 49.748 C 116.038 50.683,120.211 54.610,120.211 54.973 C 120.211 55.058,120.331 55.253,120.479 55.406 C 120.883 55.824,122.609 58.545,122.912 59.243 C 123.248 60.014,123.382 59.904,119.895 61.694 C 118.274 62.526,115.597 63.906,113.946 64.761 C 110.996 66.289,110.316 66.538,110.316 66.091 C 110.316 65.967,109.534 65.062,108.579 64.080 C 104.090 59.462,96.623 56.633,88.947 56.642 C 86.858 56.645,82.093 57.116,81.700 57.359 C 81.587 57.428,80.776 57.669,79.898 57.894 C 69.395 60.580,66.709 72.780,75.686 77.023 C 78.796 78.493,83.105 79.563,89.323 80.408 C 91.895 80.758,94.527 81.140,95.171 81.259 C 95.814 81.377,96.572 81.467,96.855 81.459 C 98.166 81.423,96.243 81.031,91.789 80.426 C 87.715 79.873,85.550 79.540,84.211 79.259 C 84.037 79.223,83.161 79.039,82.265 78.852 C 73.815 77.081,69.727 72.975,70.722 67.259 C 71.333 63.753,74.269 60.343,77.789 59.051 C 78.368 58.838,78.937 58.594,79.053 58.508 C 79.168 58.422,79.974 58.192,80.842 57.997 C 81.711 57.803,82.658 57.541,82.947 57.415 C 83.248 57.285,85.458 57.149,88.105 57.099 L 92.737 57.010 95.789 57.755 C 97.468 58.164,99.316 58.702,99.895 58.951 C 100.474 59.200,101.279 59.544,101.684 59.716 C 103.339 60.418,104.126 60.892,106.316 62.506 C 107.613 63.462,109.262 65.112,109.850 66.043 C 110.482 67.043,110.568 67.089,110.947 66.632 C 111.092 66.458,111.319 66.316,111.452 66.316 C 111.683 66.316,113.890 65.217,118.316 62.899 C 119.832 62.105,123.027 60.447,123.747 60.081 C 123.782 60.063,123.521 59.514,123.168 58.860 C 120.318 53.593,115.361 48.995,109.895 46.549 C 109.026 46.161,108.061 45.723,107.751 45.576 C 107.440 45.429,106.682 45.186,106.066 45.036 C 105.451 44.886,104.850 44.692,104.730 44.605 C 103.185 43.477,89.730 41.950,85.684 42.443 M98.842 81.806 C 99.537 81.963,101.195 82.336,102.526 82.635 C 106.454 83.516,112.696 85.797,114.311 86.942 C 114.603 87.149,115.234 87.543,115.712 87.817 C 120.200 90.388,124.491 96.272,125.363 101.053 C 125.437 101.458,125.654 102.405,125.846 103.158 C 126.302 104.953,126.351 111.707,125.920 113.579 C 125.208 116.679,124.995 117.445,124.520 118.632 C 123.926 120.112,123.251 121.440,122.462 122.680 C 122.150 123.170,121.895 123.667,121.895 123.785 C 121.895 123.903,121.753 124.000,121.579 124.000 C 121.405 124.000,121.263 124.128,121.263 124.285 C 121.263 124.441,120.974 124.891,120.620 125.285 C 120.267 125.678,119.912 126.075,119.831 126.167 C 119.409 126.648,117.458 128.421,117.350 128.421 C 117.281 128.421,116.736 128.831,116.139 129.332 C 114.799 130.455,114.004 130.953,112.067 131.882 C 111.236 132.281,110.166 132.796,109.690 133.026 C 109.214 133.256,108.520 133.509,108.149 133.588 C 107.778 133.667,107.076 133.911,106.589 134.130 C 106.102 134.349,105.060 134.673,104.273 134.850 C 103.486 135.027,102.605 135.263,102.316 135.374 C 99.399 136.490,87.187 137.108,81.579 136.422 C 78.037 135.989,75.266 135.540,74.211 135.228 C 71.723 134.494,69.121 133.638,68.429 133.327 C 65.650 132.078,62.376 130.324,62.134 129.953 C 62.060 129.840,61.783 129.633,61.518 129.493 C 60.406 128.908,56.409 125.151,55.616 123.947 C 55.422 123.653,54.691 122.620,53.991 121.653 C 53.291 120.686,52.594 119.590,52.442 119.218 C 52.290 118.845,52.033 118.431,51.872 118.297 C 51.711 118.163,51.579 117.865,51.579 117.634 C 51.579 117.404,51.367 116.838,51.108 116.378 C 50.575 115.429,50.797 115.060,52.053 114.803 C 52.371 114.738,52.632 114.600,52.632 114.498 C 52.632 114.395,53.155 114.052,53.794 113.735 C 54.434 113.417,56.305 112.458,57.952 111.604 C 64.454 108.230,63.950 108.381,64.524 109.628 C 66.287 113.464,70.349 117.356,74.769 119.445 C 76.162 120.103,77.246 120.487,80.539 121.487 C 83.150 122.280,89.916 122.731,93.179 122.330 C 96.343 121.942,99.030 121.462,99.253 121.246 C 99.363 121.140,99.620 121.053,99.824 121.053 C 100.510 121.053,103.182 119.804,104.861 118.699 C 112.136 113.912,112.182 103.693,104.947 99.447 C 102.636 98.091,99.695 96.904,98.139 96.701 C 96.886 96.537,97.047 96.714,98.526 97.127 C 107.162 99.538,111.599 105.129,109.746 111.263 C 109.606 111.726,109.384 112.462,109.254 112.899 C 108.704 114.741,105.425 118.470,103.960 118.918 C 103.809 118.964,103.542 119.125,103.368 119.276 C 102.929 119.656,99.771 120.768,98.000 121.166 C 97.189 121.348,96.147 121.588,95.684 121.699 C 90.220 123.010,79.805 121.637,74.421 118.896 C 69.985 116.636,64.421 110.876,64.421 108.543 C 64.421 108.060,64.056 107.955,63.532 108.286 C 63.069 108.579,59.619 110.371,53.279 113.610 C 51.608 114.464,50.209 115.195,50.169 115.234 C 49.977 115.427,53.112 121.264,53.981 122.329 C 54.223 122.626,54.611 123.137,54.842 123.464 C 56.764 126.179,59.140 128.377,63.075 131.077 C 64.889 132.321,71.763 135.150,72.988 135.156 C 73.241 135.157,73.497 135.236,73.556 135.331 C 73.615 135.427,74.639 135.670,75.832 135.873 C 77.024 136.076,78.332 136.331,78.737 136.440 C 82.374 137.421,94.680 137.217,100.526 136.079 C 103.248 135.549,103.625 135.449,106.842 134.397 C 116.486 131.246,123.159 124.904,125.562 116.607 C 127.748 109.058,126.138 97.692,122.284 93.473 C 121.954 93.112,121.684 92.739,121.684 92.645 C 121.684 92.425,118.477 89.263,117.950 88.963 C 117.731 88.839,117.200 88.463,116.770 88.128 C 114.939 86.704,111.080 84.861,107.684 83.789 C 103.314 82.410,103.117 82.354,101.789 82.101 C 101.095 81.969,100.129 81.774,99.644 81.667 C 99.158 81.561,98.495 81.484,98.170 81.497 C 97.792 81.512,98.035 81.623,98.842 81.806 M261.632 82.018 C 261.431 82.218,261.029 81.893,261.178 81.651 C 261.267 81.508,261.385 81.511,261.536 81.662 C 261.660 81.786,261.703 81.946,261.632 82.018 M250.190 94.655 C 250.286 94.903,250.231 94.960,249.985 94.866 C 249.801 94.795,249.605 94.737,249.549 94.737 C 249.494 94.737,249.507 94.642,249.579 94.526 C 249.772 94.214,250.043 94.271,250.190 94.655 M90.316 95.497 C 93.996 96.147,96.739 96.571,96.819 96.503 C 96.952 96.388,95.823 96.009,94.987 95.888 C 91.193 95.339,87.817 95.056,90.316 95.497 M243.158 100.526 C 243.158 100.700,243.016 100.842,242.842 100.842 C 242.513 100.842,242.424 100.593,242.667 100.351 C 242.909 100.109,243.158 100.198,243.158 100.526 M238.947 109.368 C 238.947 109.658,238.853 109.895,238.737 109.895 C 238.502 109.895,238.448 109.201,238.667 108.982 C 238.899 108.750,238.947 108.817,238.947 109.368 M311.579 130.340 C 311.174 130.462,310.544 130.788,310.179 131.065 C 309.604 131.501,309.482 131.527,309.259 131.258 C 308.784 130.686,306.836 132.290,305.170 134.625 C 304.638 135.372,304.034 136.105,303.828 136.254 C 303.242 136.680,301.889 138.557,302.017 138.765 C 302.081 138.867,301.935 139.202,301.694 139.509 C 300.542 140.974,300.423 143.243,301.404 145.068 C 301.959 146.101,324.117 168.421,324.587 168.421 C 324.727 168.421,324.842 168.525,324.842 168.651 C 324.842 168.992,328.018 172.014,328.235 171.880 C 328.337 171.816,328.421 171.941,328.421 172.157 C 328.421 172.387,329.944 174.053,332.088 176.170 C 337.123 181.140,335.892 181.410,343.534 173.659 L 349.579 167.529 349.579 165.976 L 349.579 164.423 332.980 147.799 C 321.070 135.872,316.121 131.050,315.463 130.732 C 314.380 130.207,312.613 130.029,311.579 130.340 " stroke="none" fill="#3d75cb" fill-rule="evenodd"></path></g></svg>